<svg xmlns="http://www.w3.org/2000/svg" width="288.58" height="35" viewBox="0 0 288.58 35"><rect class="svg__rect" x="0" y="0" width="125.16" height="35" fill="#31C4F3"/><rect class="svg__rect" x="123.16" y="0" width="165.42" height="35" fill="#389AD5"/><path class="svg__text" d="M15.70 22L14.22 22L14.22 13.47L17.48 13.47Q18.91 13.47 19.75 14.21Q20.59 14.96 20.59 16.18L20.59 16.18Q20.59 17.44 19.77 18.13Q18.95 18.83 17.46 18.83L17.46 18.83L15.70 18.83L15.70 22ZM15.70 14.66L15.70 17.64L17.48 17.64Q18.27 17.64 18.69 17.27Q19.10 16.90 19.10 16.19L19.10 16.19Q19.10 15.50 18.68 15.09Q18.26 14.68 17.52 14.66L17.52 14.66L15.70 14.66ZM26.44 22L24.96 22L24.96 13.47L26.44 13.47L26.44 22ZM32.73 22L31.25 22L31.25 13.47L34.51 13.47Q35.94 13.47 36.78 14.21Q37.63 14.96 37.63 16.18L37.63 16.18Q37.63 17.44 36.80 18.13Q35.98 18.83 34.50 18.83L34.50 18.83L32.73 18.83L32.73 22ZM32.73 14.66L32.73 17.64L34.51 17.64Q35.31 17.64 35.72 17.27Q36.14 16.90 36.14 16.19L36.14 16.19Q36.14 15.50 35.72 15.09Q35.29 14.68 34.56 14.66L34.56 14.66L32.73 14.66ZM49.45 22L47.97 22L47.97 13.47L49.45 13.47L49.45 22ZM55.74 22L54.26 22L54.26 13.47L55.74 13.47L59.56 19.54L59.56 13.47L61.03 13.47L61.03 22L59.55 22L55.74 15.95L55.74 22ZM65.33 19.42L65.33 19.42L66.82 19.42Q66.82 20.15 67.30 20.55Q67.78 20.95 68.67 20.95L68.67 20.95Q69.45 20.95 69.84 20.63Q70.23 20.32 70.23 19.80L70.23 19.80Q70.23 19.24 69.83 18.94Q69.44 18.63 68.40 18.32Q67.37 18.01 66.76 17.63L66.76 17.63Q65.60 16.90 65.60 15.72L65.60 15.72Q65.60 14.69 66.44 14.02Q67.28 13.35 68.62 13.35L68.62 13.35Q69.51 13.35 70.21 13.68Q70.91 14.01 71.31 14.61Q71.70 15.22 71.70 15.96L71.70 15.96L70.23 15.96Q70.23 15.29 69.81 14.91Q69.39 14.54 68.61 14.54L68.61 14.54Q67.88 14.54 67.48 14.85Q67.08 15.16 67.08 15.71L67.08 15.71Q67.08 16.18 67.51 16.50Q67.95 16.81 68.94 17.10Q69.94 17.40 70.54 17.78Q71.15 18.16 71.43 18.65Q71.71 19.13 71.71 19.79L71.71 19.79Q71.71 20.86 70.89 21.49Q70.07 22.12 68.67 22.12L68.67 22.12Q67.75 22.12 66.97 21.77Q66.20 21.43 65.77 20.83Q65.33 20.22 65.33 19.42ZM77.68 14.66L75.04 14.66L75.04 13.47L81.81 13.47L81.81 14.66L79.15 14.66L79.15 22L77.68 22L77.68 14.66ZM86.35 22L84.81 22L88.03 13.47L89.36 13.47L92.59 22L91.04 22L90.34 20.01L87.04 20.01L86.35 22ZM88.69 15.28L87.45 18.82L89.93 18.82L88.69 15.28ZM101.90 22L96.54 22L96.54 13.47L98.02 13.47L98.02 20.82L101.90 20.82L101.90 22ZM111.38 22L106.02 22L106.02 13.47L107.50 13.47L107.50 20.82L111.38 20.82L111.38 22Z" fill="#FFFFFF"/><path class="svg__text" d="M139.73 22L137.35 22L137.35 13.60L141.19 13.60Q142.33 13.60 143.17 13.98Q144.01 14.35 144.47 15.06Q144.92 15.76 144.92 16.71L144.92 16.71Q144.92 17.66 144.47 18.35Q144.01 19.05 143.17 19.42Q142.33 19.80 141.19 19.80L141.19 19.80L139.73 19.80L139.73 22ZM139.73 15.47L139.73 17.93L141.05 17.93Q141.78 17.93 142.15 17.61Q142.52 17.29 142.52 16.71L142.52 16.71Q142.52 16.12 142.15 15.80Q141.78 15.47 141.05 15.47L141.05 15.47L139.73 15.47ZM151.80 18.95L148.60 13.60L151.11 13.60L153.10 16.94L155.09 13.60L157.39 13.60L154.18 18.99L154.18 22L151.80 22L151.80 18.95ZM161.05 17.80L161.05 17.80Q161.05 16.54 161.65 15.54Q162.24 14.55 163.30 13.99Q164.35 13.43 165.67 13.43L165.67 13.43Q166.82 13.43 167.74 13.84Q168.67 14.25 169.28 15.02L169.28 15.02L167.77 16.39Q166.96 15.40 165.79 15.40L165.79 15.40Q165.10 15.40 164.57 15.70Q164.04 16 163.74 16.54Q163.45 17.09 163.45 17.80L163.45 17.80Q163.45 18.51 163.74 19.05Q164.04 19.60 164.57 19.90Q165.10 20.20 165.79 20.20L165.79 20.20Q166.96 20.20 167.77 19.22L167.77 19.22L169.28 20.58Q168.67 21.35 167.75 21.76Q166.82 22.17 165.67 22.17L165.67 22.17Q164.35 22.17 163.30 21.61Q162.24 21.05 161.65 20.05Q161.05 19.06 161.05 17.80ZM176.20 22L173.82 22L173.82 13.60L176.20 13.60L176.20 16.76L179.44 16.76L179.44 13.60L181.81 13.60L181.81 22L179.44 22L179.44 18.72L176.20 18.72L176.20 22ZM193.72 22L186.97 22L186.97 13.60L193.56 13.60L193.56 15.44L189.33 15.44L189.33 16.85L193.06 16.85L193.06 18.63L189.33 18.63L189.33 20.17L193.72 20.17L193.72 22ZM198.09 17.80L198.09 17.80Q198.09 16.54 198.69 15.54Q199.29 14.55 200.34 13.99Q201.39 13.43 202.71 13.43L202.71 13.43Q203.86 13.43 204.79 13.84Q205.71 14.25 206.32 15.02L206.32 15.02L204.81 16.39Q204.00 15.40 202.83 15.40L202.83 15.40Q202.15 15.40 201.61 15.70Q201.08 16 200.78 16.54Q200.49 17.09 200.49 17.80L200.49 17.80Q200.49 18.51 200.78 19.05Q201.08 19.60 201.61 19.90Q202.15 20.20 202.83 20.20L202.83 20.20Q204.00 20.20 204.81 19.22L204.81 19.22L206.32 20.58Q205.72 21.35 204.79 21.76Q203.86 22.17 202.71 22.17L202.71 22.17Q201.39 22.17 200.34 21.61Q199.29 21.05 198.69 20.05Q198.09 19.06 198.09 17.80ZM213.22 22L210.86 22L210.86 13.60L213.22 13.60L213.22 17.09L216.47 13.60L219.08 13.60L215.65 17.32L219.26 22L216.50 22L214.10 18.95L213.22 19.90L213.22 22ZM225.75 22L223.37 22L223.37 13.60L227.21 13.60Q228.35 13.60 229.19 13.98Q230.03 14.35 230.49 15.06Q230.95 15.76 230.95 16.71L230.95 16.71Q230.95 17.66 230.49 18.35Q230.03 19.05 229.19 19.42Q228.35 19.80 227.21 19.80L227.21 19.80L225.75 19.80L225.75 22ZM225.75 15.47L225.75 17.93L227.07 17.93Q227.80 17.93 228.17 17.61Q228.54 17.29 228.54 16.71L228.54 16.71Q228.54 16.12 228.17 15.80Q227.80 15.47 227.07 15.47L227.07 15.47L225.75 15.47ZM235.27 17.80L235.27 17.80Q235.27 16.55 235.87 15.55Q236.48 14.56 237.54 14.00Q238.60 13.43 239.93 13.43L239.93 13.43Q241.26 13.43 242.33 14.00Q243.39 14.56 244.00 15.55Q244.60 16.55 244.60 17.80L244.60 17.80Q244.60 19.05 244.00 20.04Q243.39 21.04 242.33 21.60Q241.27 22.17 239.93 22.17L239.93 22.17Q238.60 22.17 237.54 21.60Q236.48 21.04 235.87 20.04Q235.27 19.05 235.27 17.80ZM237.67 17.80L237.67 17.80Q237.67 18.51 237.97 19.05Q238.27 19.60 238.79 19.90Q239.30 20.20 239.93 20.20L239.93 20.20Q240.57 20.20 241.09 19.90Q241.60 19.60 241.90 19.05Q242.20 18.51 242.20 17.80L242.20 17.80Q242.20 17.09 241.90 16.54Q241.60 16 241.09 15.70Q240.57 15.40 239.93 15.40L239.93 15.40Q239.30 15.40 238.78 15.70Q238.27 16 237.97 16.54Q237.67 17.09 237.67 17.80ZM251.71 22L249.33 22L249.33 13.60L251.71 13.60L251.71 22ZM259.22 22L256.88 22L256.88 13.60L258.84 13.60L262.55 18.07L262.55 13.60L264.88 13.60L264.88 22L262.93 22L259.22 17.52L259.22 22ZM271.83 15.48L269.25 15.48L269.25 13.60L276.77 13.60L276.77 15.48L274.21 15.48L274.21 22L271.83 22L271.83 15.48Z" fill="#FFFFFF" x="136.16"/></svg>